<?xml version="1.0" encoding="UTF-8" standalone="no"?>
<!-- Created with Inkscape (http://www.inkscape.org/) -->

<svg
        xmlns:dc="http://purl.org/dc/elements/1.1/"
        xmlns:cc="http://creativecommons.org/ns#"
        xmlns:rdf="http://www.w3.org/1999/02/22-rdf-syntax-ns#"
        xmlns="http://www.w3.org/2000/svg"
        xmlns:sodipodi="http://sodipodi.sourceforge.net/DTD/sodipodi-0.dtd"
        xmlns:inkscape="http://www.inkscape.org/namespaces/inkscape"
        width="32px"
        height="32px"
        viewBox="0 0 32 32"
        version="1.1"
        id="SVGRoot"
        inkscape:version="0.92.1 r"
        sodipodi:docname="rewindButton.svg">
  <sodipodi:namedview
     id="base"
     pagecolor="#ffffff"
     bordercolor="#666666"
     borderopacity="1.0"
     inkscape:pageopacity="0.0"
     inkscape:pageshadow="2"
     inkscape:zoom="11.313708"
     inkscape:cx="5.9799056"
     inkscape:cy="1.0935021"
     inkscape:document-units="px"
     inkscape:current-layer="layer1"
     showgrid="false"
     inkscape:window-width="1894"
     inkscape:window-height="1037"
     inkscape:window-x="13"
     inkscape:window-y="30"
     inkscape:window-maximized="0"
     inkscape:grid-bbox="true"
     showguides="true"
     inkscape:pagecheckerboard="true">
    <inkscape:grid
       type="xygrid"
       id="grid866" />
  </sodipodi:namedview>
  <defs
     id="defs18" />
  <metadata
     id="metadata21">
    <rdf:RDF>
      <cc:Work
         rdf:about="">
        <dc:format>image/svg+xml</dc:format>
        <dc:type
           rdf:resource="http://purl.org/dc/dcmitype/StillImage" />
        <dc:title></dc:title>
      </cc:Work>
    </rdf:RDF>
  </metadata>
  <g
     id="layer1"
     inkscape:groupmode="layer"
     inkscape:label="Capa 1">
    <path
       style="fill:#ffffff;fill-opacity:1;fill-rule:evenodd;stroke:none;stroke-width:1.21475601px;stroke-linecap:round;stroke-linejoin:round;stroke-opacity:1"
       d="m 24.412081,8.1518826 c -0.115279,0.0035 -0.226561,0.040249 -0.320312,0.1074218 L 18.314425,12.36282 V 8.7475857 c -1.74e-4,-0.3270023 -0.270782,-0.5892319 -0.597656,-0.5800781 -0.11528,0.0035 -0.226561,0.042202 -0.320313,0.109375 L 7.2323934,15.536648 c -0.32284,0.231715 -0.32284,0.711645 0,0.94336 l 10.1640626,7.259765 c 0.384018,0.273499 0.916963,-0.0012 0.917969,-0.472656 0.0057,-1.262474 -0.0021,-2.565439 0.0039,-3.654256 1.925972,1.359785 3.850906,2.739914 5.773444,4.111287 0.383971,0.273499 0.916962,-0.0012 0.917968,-0.472656 V 8.7319607 C 25.009563,8.4049582 24.738956,8.1427287 24.412081,8.1518826 Z"
       id="path6200"
       inkscape:connector-curvature="0" />
  </g>
</svg>
